<?xml version="1.0" encoding="UTF-8"?>
<svg id="Ebene_1" data-name="Ebene 1" xmlns="http://www.w3.org/2000/svg" version="1.1" viewBox="0 0 24 24">
  <defs>
    <style>
      .cls-1 {
        fill: none;
        stroke: #000;
        stroke-miterlimit: 10;
        stroke-width: .9px;
      }
    </style>
  </defs>
  <path class="cls-1" d="M18.6,1.1H5.4C3,1.1,1.1,3,1.1,5.4v13.3c0,2.3,1.9,4.2,4.2,4.2h13.3c2.3,0,4.2-1.9,4.2-4.2V5.4c0-2.3-1.9-4.2-4.2-4.2ZM8.7,15c-2.2.4-4-1.5-3.6-3.6s1.2-2.2,2.4-2.4c2.2-.4,4,1.5,3.6,3.6s-1.2,2.2-2.4,2.4ZM16.5,15c-2.2.4-4-1.5-3.6-3.6s1.2-2.2,2.4-2.4c2.2-.4,4,1.5,3.6,3.6s-1.2,2.2-2.4,2.4Z"/>
</svg>